<svg width="207" height="45" viewBox="0 0 207 45" fill="none" xmlns="http://www.w3.org/2000/svg">
<rect x="0.5" y="1" width="206" height="43" rx="14.5" stroke="#6626FA"/>
<rect x="159.52" y="10.625" width="23.6755" height="23.75" rx="11.8377" stroke="#6626FA"/>
<path d="M175.236 26.3891V18.611M175.236 18.611H167.481M175.236 18.611L167.481 26.3891" stroke="white" stroke-width="1.5" stroke-linecap="round" stroke-linejoin="round"/>
<path d="M29.0172 23.625C29.0172 18.825 31.3372 16.325 36.1172 16.325C40.9172 16.325 43.2172 18.825 43.2172 23.625C43.2172 28.425 40.9172 30.925 36.1172 30.925C31.3372 30.925 29.0172 28.425 29.0172 23.625ZM31.5172 23.625C31.5172 26.945 33.0172 28.665 36.1172 28.665C39.2372 28.665 40.7172 26.945 40.7172 23.625C40.7172 20.285 39.2372 18.565 36.1172 18.565C32.9172 18.565 31.5172 20.285 31.5172 23.625ZM47.1078 30.625H44.8078V20.625H47.1078V22.005C47.7278 20.945 48.7478 20.325 50.1278 20.325C52.5478 20.325 53.8478 21.745 53.8478 24.665H51.7478C51.7478 23.365 51.1078 22.465 49.6278 22.465C48.0478 22.465 47.1078 23.545 47.1078 25.605V30.625ZM59.926 20.325C63.106 20.325 64.786 22.225 64.786 24.625H62.686C62.686 23.365 61.746 22.465 59.906 22.465C58.106 22.465 56.886 23.285 56.886 25.585C56.886 27.985 58.246 28.765 60.026 28.765C61.906 28.765 62.766 27.865 62.766 26.625H64.866C64.866 28.965 63.406 30.825 60.246 30.925L59.846 31.805C60.806 31.805 61.826 32.125 61.826 33.485C61.826 34.845 61.006 35.405 59.806 35.405C59.466 35.405 57.746 35.305 57.746 33.745H58.946C58.946 34.065 59.366 34.205 59.726 34.205C60.246 34.205 60.526 33.985 60.526 33.505C60.526 32.945 60.006 32.745 59.226 32.745H58.406L59.106 30.885C56.106 30.605 54.486 28.805 54.486 25.625C54.486 22.105 56.146 20.325 59.926 20.325ZM73.6127 24.245C73.6127 22.425 72.0327 22.265 70.9327 22.265C69.7927 22.265 68.3327 22.385 68.3327 24.085H66.2327C66.2327 21.385 68.0327 20.325 70.9327 20.325C74.2727 20.325 75.9127 21.385 75.9127 24.585V30.625H73.6127V29.265C73.2127 30.245 72.2727 30.925 70.0727 30.925C67.5527 30.925 65.6727 30.265 65.6727 27.785C65.6727 25.785 67.2527 24.945 70.0727 24.645L73.6127 24.285V24.245ZM73.6127 25.945L70.4127 26.265C69.1127 26.405 68.0727 26.765 68.0727 27.745C68.0727 28.505 68.6727 28.965 70.3927 28.965C72.6327 28.965 73.5127 28.005 73.6127 27.265V25.945ZM86.978 30.625H84.678V24.845C84.678 23.545 84.238 22.465 82.458 22.465C80.858 22.465 80.018 23.545 80.018 25.605V30.625H77.718V20.625H80.018V22.005C80.658 20.945 81.698 20.325 83.278 20.325C84.778 20.325 85.838 20.885 86.418 21.985C87.018 21.025 88.058 20.325 89.718 20.325C92.638 20.325 93.918 21.645 93.918 25.045V30.625H91.618V25.245C91.618 23.545 91.178 22.465 89.418 22.465C87.798 22.465 86.978 23.545 86.978 24.865V30.625ZM105.826 25.905V26.305H97.7658C97.9658 28.285 99.1058 28.965 100.926 28.965C102.486 28.965 103.606 28.165 103.606 27.205L105.706 27.225C105.706 29.425 104.026 30.925 100.926 30.925C97.1658 30.925 95.3258 29.085 95.3258 25.605C95.3258 22.205 97.1858 20.325 100.566 20.325C104.326 20.325 105.826 22.225 105.826 25.905ZM97.8258 24.605H103.546C103.326 22.965 102.226 22.265 100.666 22.265C99.2658 22.265 98.1458 23.065 97.8258 24.605ZM117.585 30.625H115.285V25.245C115.285 23.545 114.765 22.465 112.625 22.465C110.725 22.465 109.725 23.545 109.725 25.605V30.625H107.425V20.625H109.725V22.025C110.385 20.945 111.525 20.325 113.265 20.325C116.165 20.325 117.585 21.645 117.585 25.045V30.625ZM120.592 27.065V22.725H118.192V20.625H120.592L121.392 16.625H122.892L122.872 20.625H127.892V22.725H122.892V26.765C122.892 27.805 123.072 28.765 124.292 28.765C125.192 28.765 125.872 28.325 125.872 26.825H127.972C127.972 29.925 126.552 30.925 124.212 30.925C121.852 30.925 120.592 29.805 120.592 27.065ZM129.037 25.625C129.037 22.145 130.857 20.325 134.637 20.325C138.417 20.325 140.237 22.145 140.237 25.625C140.237 29.105 138.417 30.925 134.637 30.925C130.857 30.925 129.037 29.105 129.037 25.625ZM131.437 25.625C131.437 27.685 132.477 28.765 134.637 28.765C136.797 28.765 137.837 27.685 137.837 25.625C137.837 23.545 136.797 22.465 134.637 22.465C132.397 22.465 131.437 23.545 131.437 25.625Z" fill="white"/>
</svg>
