<svg width="356" height="355" viewBox="0 0 356 355" fill="none" xmlns="http://www.w3.org/2000/svg">
<path d="M238.25 202.314C238.235 202.314 238.22 202.319 238.207 202.328C238.194 202.337 238.184 202.349 238.178 202.363C238.172 202.377 238.17 202.392 238.173 202.407C238.176 202.422 238.184 202.435 238.195 202.446C260.03 224.206 281.844 245.948 303.637 267.671C311.076 275.084 313.228 285.766 309.123 295.344C304.741 305.564 293.828 311.638 282.783 310.031C278.008 309.338 273.882 307.509 270.405 304.542C269.347 303.641 267.925 302.297 266.138 300.511C245.526 279.91 224.496 258.931 203.048 237.575C202.942 237.469 202.889 237.492 202.889 237.642C202.869 266.288 202.859 295.441 202.857 325.102C202.857 328.102 203.033 331.346 202.572 334.121C201.206 342.294 195.929 349.458 188.182 352.857C173.381 359.347 156.324 350.479 153.502 334.601C153.245 333.161 153.118 331.226 153.12 328.796C153.14 298.435 153.142 268.067 153.126 237.692C153.126 237.633 153.106 237.579 153.067 237.531C153.064 237.526 153.059 237.523 153.054 237.52C153.049 237.518 153.044 237.516 153.038 237.516C153.032 237.516 153.026 237.517 153.021 237.519C153.015 237.521 153.01 237.524 153.006 237.528C131.448 258.997 109.985 280.403 88.6177 301.744C86.8223 303.537 85.3696 304.835 84.2595 305.637C72.2277 314.346 54.7894 310.394 47.8175 297.282C42.5608 287.396 44.3581 275.675 52.3078 267.745C74.0534 246.052 95.8685 224.303 117.753 202.495C117.872 202.376 117.848 202.317 117.68 202.317C87.3862 202.293 56.8441 202.294 26.0534 202.32C23.8332 202.322 22.0281 202.204 20.638 201.968C6.78544 199.609 -2.13931 186.365 0.445021 172.799C1.50812 167.214 4.25299 162.507 8.67963 158.678C13.2472 154.726 18.6714 152.747 24.9521 152.741C55.596 152.712 86.5375 152.696 117.777 152.694C117.79 152.694 117.804 152.689 117.816 152.682C117.827 152.674 117.836 152.663 117.842 152.65C117.847 152.638 117.848 152.624 117.846 152.611C117.843 152.598 117.836 152.586 117.826 152.577C95.8949 130.723 73.9486 108.841 51.9877 86.9323C40.7077 75.6793 43.1217 56.5632 56.8128 48.3196C65.4145 43.141 76.3245 43.5684 84.4181 49.5199C85.5771 50.3708 86.932 51.572 88.4826 53.1235C110.173 74.8001 131.68 96.2523 153.003 117.48C153.089 117.568 153.132 117.55 153.132 117.427C153.136 87.0231 153.136 56.6023 153.132 26.1649C153.132 23.6258 153.255 21.723 153.502 20.4564C154.9 13.2589 158.666 7.70163 164.8 3.78474C174.931 -2.68779 188.796 -0.673727 196.669 8.41299C200.418 12.7397 202.473 17.6256 202.833 23.0706C202.88 23.779 202.903 25.4867 202.901 28.1936C202.883 56.8355 202.873 86.5488 202.871 117.334C202.871 117.525 202.939 117.553 203.074 117.419C224.925 95.6385 246.793 73.8341 268.678 52.0052C275.905 44.795 287.094 42.6024 296.442 46.8647C310.767 53.3958 315.748 71.1213 306.5 84.002C305.705 85.1086 304.56 86.4064 303.064 87.8954C281.303 109.584 259.677 131.142 238.186 152.571C238.175 152.581 238.168 152.594 238.165 152.609C238.162 152.623 238.163 152.638 238.169 152.652C238.175 152.666 238.184 152.677 238.197 152.685C238.209 152.693 238.224 152.697 238.239 152.697C269.405 152.689 300.578 152.692 331.756 152.706C334.522 152.706 337.408 153.3 340.414 154.488C346.466 156.883 351.579 161.795 354.096 167.905C360.222 182.779 350.974 199.705 334.84 202.027C333.434 202.228 331.49 202.327 329.007 202.326C298.726 202.296 268.473 202.292 238.25 202.314Z" fill="url(#paint0_linear_53_786)"/>
<defs>
<linearGradient id="paint0_linear_53_786" x1="37.9621" y1="135.581" x2="380.255" y2="162.867" gradientUnits="userSpaceOnUse">
<stop/>
<stop offset="1" stop-color="#4500E6" stop-opacity="0.3"/>
</linearGradient>
</defs>
</svg>
