<svg width="42" height="41" viewBox="0 0 42 41" fill="none" xmlns="http://www.w3.org/2000/svg">
<path d="M29.2566 16.1687H24.1244V14.8943H29.2586V16.1707L29.2566 16.1687ZM20.707 21.3992C21.0389 21.9114 21.2028 22.5342 21.2028 23.2656C21.2028 24.0237 21.0184 24.6998 20.6374 25.3001C20.3835 25.7218 20.0442 26.0856 19.6412 26.3683C19.2383 26.6509 18.7806 26.8461 18.2977 26.9411C17.7048 27.0597 17.1014 27.1174 16.4968 27.1132H10.7561V14.3657H16.9127C18.4636 14.3903 19.5638 14.841 20.2133 15.7241C20.6025 16.2649 20.7972 16.9144 20.7972 17.6704C20.7972 18.4489 20.6025 19.0738 20.2071 19.5471C19.99 19.8134 19.6663 20.0552 19.2381 20.2724C19.8855 20.51 20.3772 20.8829 20.707 21.3992ZM13.6961 19.3914H16.3943C16.9475 19.3914 17.3962 19.2869 17.7404 19.0759C18.0866 18.8648 18.2587 18.492 18.2587 17.9552C18.2587 17.361 18.0313 16.9677 17.5744 16.7792C17.0863 16.633 16.578 16.5652 16.0686 16.5784H13.6961V19.3914ZM18.5189 23.0833C18.5189 22.4215 18.2464 21.9647 17.7076 21.7188C17.4044 21.5795 16.9783 21.5078 16.4333 21.5016H13.6961V24.8985H16.3903C16.9434 24.8985 17.3737 24.8268 17.681 24.6752C18.2383 24.3986 18.5189 23.87 18.5189 23.0833ZM31.162 21.0099C31.2234 21.4279 31.2521 22.0323 31.2419 22.8231H24.5936C24.6304 23.7409 24.946 24.3822 25.5483 24.7489C25.9089 24.9805 26.3473 25.0931 26.8636 25.0931C27.4065 25.0931 27.847 24.9559 28.1892 24.6731C28.3929 24.4992 28.5594 24.286 28.6788 24.0462H31.1169C31.0513 24.5891 30.7584 25.1382 30.2318 25.6975C29.4123 26.5847 28.2691 27.0292 26.796 27.0292C25.6252 27.0444 24.4865 26.6469 23.5794 25.9065C22.6534 25.1567 22.1863 23.9397 22.1863 22.2494C22.1863 20.6657 22.6063 19.4528 23.4442 18.6087C24.2842 17.7626 25.3721 17.3426 26.712 17.3426C27.5049 17.3426 28.2199 17.484 28.8591 17.7687C29.4943 18.0556 30.0208 18.5043 30.4346 19.1209C30.8096 19.6659 31.0493 20.2928 31.162 21.0099ZM28.7649 21.2476C28.7198 20.6125 28.5067 20.133 28.1257 19.8052C27.7323 19.4703 27.2284 19.2935 26.712 19.3094C26.0974 19.3094 25.6241 19.4877 25.2861 19.8339C24.948 20.1822 24.737 20.6534 24.6509 21.2476H28.7649Z" fill="white"/>
<path d="M8.70733 4.12198C7.62059 4.12198 6.57836 4.55368 5.80992 5.32212C5.04147 6.09057 4.60977 7.1328 4.60977 8.21954V32.8049C4.60977 33.8917 5.04147 34.9339 5.80992 35.7023C6.57836 36.4708 7.62059 36.9025 8.70733 36.9025H33.2927C34.3794 36.9025 35.4217 36.4708 36.1901 35.7023C36.9586 34.9339 37.3903 33.8917 37.3903 32.8049V8.21954C37.3903 7.1328 36.9586 6.09057 36.1901 5.32212C35.4217 4.55368 34.3794 4.12198 33.2927 4.12198H8.70733ZM8.70733 0.0244141H33.2927C35.4662 0.0244141 37.5506 0.887827 39.0875 2.42471C40.6244 3.96159 41.4878 6.04606 41.4878 8.21954V32.8049C41.4878 34.9784 40.6244 37.0629 39.0875 38.5997C37.5506 40.1366 35.4662 41 33.2927 41H8.70733C6.53385 41 4.44939 40.1366 2.9125 38.5997C1.37562 37.0629 0.512207 34.9784 0.512207 32.8049V8.21954C0.512207 6.04606 1.37562 3.96159 2.9125 2.42471C4.44939 0.887827 6.53385 0.0244141 8.70733 0.0244141Z" fill="white"/>
</svg>
