<svg width="543" height="420" viewBox="0 0 543 420" fill="none" xmlns="http://www.w3.org/2000/svg">
<g clip-path="url(#clip0_429_53)">
<path d="M35.9712 418.691C18.4606 421.145 3.72522 409.184 1.52688 391.761C0.815867 386.135 1.97671 380.513 5.00941 374.894C34.0957 321.063 64.2667 270.48 95.5223 223.147C124.485 179.296 154.772 136.193 186.384 93.8384C205.965 67.5987 225.076 42.1403 243.715 17.4634C247.669 12.23 251.057 8.68286 253.879 6.8221C264.719 -0.308422 279.291 -0.330228 289.477 8.11955C291.799 10.0385 294.403 12.8696 297.291 16.6129C333.672 63.8117 371.686 113.42 406.784 163.225C457.694 235.453 501.563 306.231 538.39 375.559C548 393.647 536.301 415.791 516.45 418.964C513.229 419.48 509.351 419.433 504.817 418.822C443.147 410.572 381.749 405.477 320.624 403.536C224.63 400.498 129.745 405.55 35.9712 418.691ZM94.6408 350.842C214.712 338.958 335.784 339.83 456.116 352.271C456.166 352.276 456.218 352.267 456.264 352.245C456.31 352.223 456.348 352.188 456.376 352.145C456.403 352.102 456.417 352.052 456.418 352.001C456.418 351.95 456.404 351.9 456.377 351.856C420.478 290.037 380.549 228.984 336.589 168.698C316.122 140.627 294.378 111.665 271.357 81.8125C271.147 81.5363 270.933 81.5363 270.715 81.8125C248.311 111.243 226.084 141.241 204.036 171.805C161.752 230.419 122.791 290.189 87.1534 351.115C87.1225 351.168 87.1063 351.228 87.1068 351.289C87.1073 351.35 87.1244 351.41 87.1561 351.461C87.1879 351.512 87.233 351.553 87.2864 351.578C87.3398 351.604 87.3993 351.613 87.4581 351.606C89.8451 351.337 92.2393 351.082 94.6408 350.842Z" fill="#FF554C"/>
<g clip-path="url(#clip1_429_53)">
<path d="M232.292 280.178C224.195 276.46 219.82 268.435 220.636 259.44C220.876 256.729 221.982 253.647 223.955 250.195C233.326 233.84 243.926 218.478 255.091 204.544C259.807 198.664 265.695 195.953 272.754 196.41C275.845 196.607 279.019 197.777 282.277 199.921C284.185 201.171 286.097 203.007 288.012 205.427C300.07 220.72 310.217 235.614 318.452 250.107C320.323 253.4 321.423 256.504 321.749 259.419C322.914 269.951 316.297 279.295 306.067 281.693C303.513 282.297 300.651 282.366 297.48 281.9C279.313 279.255 261.048 279.32 242.685 282.097C239.572 282.562 236.108 281.922 232.292 280.178Z" fill="#FF554C"/>
</g>
</g>
<defs>
<clipPath id="clip0_429_53">
<rect width="541.968" height="418.673" fill="white" transform="translate(0.236038 0.52832)"/>
</clipPath>
<clipPath id="clip1_429_53">
<rect width="102.299" height="87.2235" fill="white" transform="translate(220.07 195.691)"/>
</clipPath>
</defs>
</svg>
