<svg width="52" height="55" viewBox="0 0 52 55" fill="none" xmlns="http://www.w3.org/2000/svg">
<path d="M22.8491 18.1002C22.8495 18.3645 22.8011 18.6263 22.7066 18.8707C22.6121 19.1151 22.4733 19.3373 22.2982 19.5245C22.1232 19.7117 21.9152 19.8604 21.6862 19.962C21.4573 20.0636 21.2118 20.1161 20.9637 20.1165L3.44188 20.1491C2.94102 20.15 2.46032 19.9389 2.10553 19.5621C1.75073 19.1853 1.55091 18.6737 1.55 18.1399L1.526 3.49081C1.52557 3.22648 1.574 2.96465 1.66851 2.72026C1.76302 2.47587 1.90177 2.25372 2.07684 2.06649C2.25191 1.87925 2.45987 1.7306 2.68884 1.62902C2.91781 1.52744 3.16331 1.47493 3.41132 1.47447L20.9332 1.4419C21.4341 1.44097 21.9148 1.65213 22.2695 2.02893C22.6243 2.40572 22.8242 2.9173 22.8251 3.45111L22.8491 18.1002ZM19.055 5.83215C19.055 5.78442 19.0463 5.73714 19.0292 5.69301C19.0122 5.64888 18.9871 5.60877 18.9555 5.57496C18.9239 5.54114 18.8864 5.5143 18.8451 5.49595C18.8037 5.4776 18.7594 5.46811 18.7146 5.46802L5.6518 5.44369C5.60701 5.4436 5.56264 5.45292 5.52123 5.4711C5.47982 5.48929 5.44217 5.516 5.41045 5.5497C5.37872 5.58339 5.35353 5.62342 5.33632 5.6675C5.31911 5.71157 5.31022 5.75883 5.31015 5.80657L5.29389 15.7868C5.2938 15.8345 5.30254 15.8818 5.3196 15.9259C5.33665 15.9701 5.3617 16.0102 5.3933 16.044C5.4249 16.0778 5.46245 16.1047 5.50379 16.123C5.54513 16.1414 5.58945 16.1508 5.63423 16.1509L18.697 16.1753C18.7418 16.1753 18.7862 16.166 18.8276 16.1478C18.869 16.1297 18.9067 16.103 18.9384 16.0693C18.9701 16.0356 18.9953 15.9955 19.0125 15.9515C19.0297 15.9074 19.0386 15.8601 19.0387 15.8124L19.055 5.83215Z" fill="white"/>
<path d="M50.3977 26.0957C50.3981 26.3673 50.3484 26.6365 50.2512 26.8876C50.1541 27.1388 50.0115 27.3671 49.8316 27.5596C49.6516 27.752 49.4379 27.9048 49.2026 28.0092C48.9673 28.1136 48.7149 28.1676 48.46 28.1681L31.043 28.2005C30.788 28.201 30.5356 28.1479 30.2999 28.0444C30.0642 27.9409 29.85 27.7889 29.6694 27.5971C29.4889 27.4054 29.3455 27.1776 29.2475 26.9268C29.1496 26.676 29.0989 26.407 29.0985 26.1354L29.0615 3.54672C29.061 3.27505 29.1108 3.00594 29.2079 2.75477C29.3051 2.50359 29.4477 2.27526 29.6276 2.08282C29.8075 1.89038 30.0213 1.7376 30.2566 1.63319C30.4919 1.52879 30.7442 1.4748 30.9991 1.47433L48.4162 1.4419C48.6711 1.44142 48.9236 1.49446 49.1593 1.59798C49.395 1.70151 49.6092 1.85349 49.7898 2.04525C49.9703 2.23702 50.1137 2.46481 50.2116 2.71562C50.3096 2.96643 50.3602 3.23535 50.3607 3.50703L50.3977 26.0957ZM46.6151 5.83326C46.6151 5.73688 46.5792 5.64444 46.5152 5.57628C46.4513 5.50812 46.3645 5.46983 46.2741 5.46983H33.2113C33.1209 5.46983 33.0341 5.50812 32.9702 5.57628C32.9062 5.64444 32.8703 5.73688 32.8703 5.83326V23.7253C32.8703 23.8216 32.9062 23.9141 32.9702 23.9822C33.0341 24.0504 33.1209 24.0887 33.2113 24.0887H46.2741C46.3645 24.0887 46.4513 24.0504 46.5152 23.9822C46.5792 23.9141 46.6151 23.8216 46.6151 23.7253V5.83326Z" fill="white"/>
<path d="M22.8186 51.4917C22.8182 51.7597 22.7682 52.025 22.6716 52.2724C22.5749 52.5198 22.4335 52.7445 22.2554 52.9337C22.0773 53.1229 21.8659 53.2728 21.6334 53.3749C21.4009 53.477 21.1519 53.5293 20.9004 53.5289L3.43086 53.4964C3.1794 53.496 2.93049 53.4427 2.69835 53.3397C2.4662 53.2367 2.25536 53.086 2.07787 52.8961C1.90038 52.7063 1.75971 52.481 1.66389 52.2333C1.56808 51.9855 1.51899 51.72 1.51944 51.452L1.55643 28.8074C1.55688 28.5394 1.60685 28.2742 1.70349 28.0267C1.80013 27.7793 1.94155 27.5546 2.11968 27.3654C2.2978 27.1763 2.50914 27.0263 2.74163 26.9242C2.97412 26.8221 3.22321 26.7698 3.47467 26.7703L20.9442 26.8027C21.1957 26.8032 21.4446 26.8564 21.6767 26.9594C21.9089 27.0624 22.1197 27.2132 22.2972 27.403C22.4747 27.5928 22.6154 27.8181 22.7112 28.0659C22.807 28.3137 22.8561 28.5791 22.8556 28.8471L22.8186 51.4917ZM19.0468 31.2595C19.0468 31.1594 19.0095 31.0634 18.9431 30.9926C18.8767 30.9218 18.7866 30.8821 18.6927 30.8821H5.65613C5.56221 30.8821 5.47214 30.9218 5.40573 30.9926C5.33933 31.0634 5.30202 31.1594 5.30202 31.2595V49.1235C5.30202 49.2236 5.33933 49.3196 5.40573 49.3904C5.47214 49.4612 5.56221 49.5009 5.65613 49.5009H18.6927C18.7866 49.5009 18.8767 49.4612 18.9431 49.3904C19.0095 49.3196 19.0468 49.2236 19.0468 49.1235V31.2595Z" fill="white"/>
<path d="M50.3911 51.4798C50.3916 51.7442 50.3431 52.006 50.2486 52.2504C50.1541 52.4948 50.0154 52.7169 49.8403 52.9041C49.6652 53.0914 49.4573 53.24 49.2283 53.3416C48.9993 53.4432 48.7538 53.4957 48.5058 53.4962L30.9839 53.5287C30.4831 53.5297 30.0024 53.3185 29.6476 52.9417C29.2928 52.5649 29.093 52.0533 29.0921 51.5195L29.0681 36.8704C29.0676 36.6061 29.1161 36.3443 29.2106 36.0999C29.3051 35.8555 29.4438 35.6334 29.6189 35.4461C29.794 35.2589 30.0019 35.1102 30.2309 35.0087C30.4599 34.9071 30.7054 34.8546 30.9534 34.8541L48.4752 34.8215C48.9761 34.8206 49.4568 35.0318 49.8116 35.4086C50.1664 35.7854 50.3662 36.2969 50.3671 36.8308L50.3911 51.4798ZM46.607 39.1862C46.6069 39.1366 46.5977 39.0876 46.5798 39.0418C46.5619 38.996 46.5358 38.9544 46.5028 38.9195C46.4699 38.8845 46.4308 38.8567 46.3878 38.8378C46.3448 38.8189 46.2987 38.8093 46.2522 38.8094L33.2156 38.8337C33.1691 38.8338 33.1231 38.8436 33.0802 38.8627C33.0372 38.8817 32.9982 38.9096 32.9654 38.9447C32.9326 38.9798 32.9066 39.0215 32.8889 39.0673C32.8712 39.1131 32.8621 39.1622 32.8622 39.2118L32.8784 49.1361C32.8785 49.1857 32.8877 49.2348 32.9056 49.2805C32.9235 49.3263 32.9496 49.3679 32.9826 49.4029C33.0155 49.4379 33.0546 49.4656 33.0976 49.4845C33.1406 49.5034 33.1867 49.5131 33.2332 49.513L46.2698 49.4886C46.3163 49.4885 46.3623 49.4787 46.4052 49.4596C46.4482 49.4406 46.4872 49.4127 46.52 49.3776C46.5528 49.3425 46.5788 49.3008 46.5965 49.255C46.6143 49.2092 46.6233 49.1601 46.6232 49.1105L46.607 39.1862Z" fill="white"/>
</svg>
