<svg width="14" height="14" viewBox="0 0 14 14" fill="none" xmlns="http://www.w3.org/2000/svg">
<path d="M8.08265 5.78338L9.18632 4.68049C8.73259 4.27502 8.16993 4.01151 7.56797 3.92257C6.96601 3.83363 6.35118 3.92318 5.79959 4.18011C5.248 4.43705 4.78386 4.8501 4.46464 5.36814C4.14541 5.88617 3.98511 6.48645 4.00357 7.09467C4.02203 7.70288 4.21845 8.29234 4.56851 8.79006C4.91857 9.28778 5.4069 9.67191 5.97306 9.89492C6.53922 10.1179 7.15835 10.17 7.75381 10.0447C8.34927 9.91944 8.89491 9.62229 9.32321 9.19004L8.30198 8.16882H8.13865C7.91627 8.36406 7.64282 8.49181 7.35039 8.53709C7.05796 8.58237 6.75867 8.5433 6.48767 8.42446C6.21666 8.30562 5.98517 8.11195 5.82037 7.86617C5.65557 7.62039 5.56429 7.3327 5.55725 7.03687C5.55021 6.74103 5.6277 6.44933 5.78062 6.19599C5.93354 5.94264 6.15555 5.73818 6.4206 5.60658C6.68564 5.47498 6.98273 5.42172 7.27698 5.45303C7.57124 5.48435 7.85046 5.59895 8.08187 5.78338" fill="white"/>
<path fill-rule="evenodd" clip-rule="evenodd" d="M7 0C7.91925 -1.36979e-08 8.8295 0.18106 9.67878 0.532843C10.5281 0.884626 11.2997 1.40024 11.9497 2.05025C12.5998 2.70026 13.1154 3.47194 13.4672 4.32122C13.8189 5.1705 14 6.08075 14 7C14 7.91925 13.8189 8.8295 13.4672 9.67878C13.1154 10.5281 12.5998 11.2997 11.9497 11.9497C11.2997 12.5998 10.5281 13.1154 9.67878 13.4672C8.8295 13.8189 7.91925 14 7 14C5.14348 14 3.36301 13.2625 2.05025 11.9497C0.737498 10.637 0 8.85652 0 7C0 5.14348 0.737498 3.36301 2.05025 2.05025C3.36301 0.737498 5.14348 2.76642e-08 7 0ZM7 1.55556C7.71497 1.55556 8.42295 1.69638 9.0835 1.96999C9.74405 2.2436 10.3442 2.64463 10.8498 3.1502C11.3554 3.65576 11.7564 4.25595 12.03 4.9165C12.3036 5.57705 12.4444 6.28503 12.4444 7C12.4444 7.71497 12.3036 8.42295 12.03 9.0835C11.7564 9.74405 11.3554 10.3442 10.8498 10.8498C10.3442 11.3554 9.74405 11.7564 9.0835 12.03C8.42295 12.3036 7.71497 12.4444 7 12.4444C5.55604 12.4444 4.17123 11.8708 3.1502 10.8498C2.12916 9.82877 1.55556 8.44396 1.55556 7C1.55556 5.55604 2.12916 4.17123 3.1502 3.1502C4.17123 2.12916 5.55604 1.55556 7 1.55556Z" fill="white"/>
</svg>
