<svg width="24" height="28" viewBox="0 0 24 28" fill="none" xmlns="http://www.w3.org/2000/svg">
<path id="File icon" fill-rule="evenodd" clip-rule="evenodd" d="M18 25H6C5.20435 25 4.44129 24.6839 3.87868 24.1213C3.31607 23.5587 3 22.7956 3 22V6C3 5.20435 3.31607 4.44129 3.87868 3.87868C4.44129 3.31607 5.20435 3 6 3H10V8C10 9.5913 10.6321 11.1174 11.7574 12.2426C12.8826 13.3679 14.4087 14 16 14H21V22C21 22.7956 20.6839 23.5587 20.1213 24.1213C19.5587 24.6839 18.7956 25 18 25ZM20.606 11C20.4737 10.7674 20.3109 10.5535 20.122 10.364L13.636 3.878C13.4465 3.68902 13.2326 3.52625 13 3.394V8C13 8.79565 13.3161 9.55871 13.8787 10.1213C14.4413 10.6839 15.2044 11 16 11H20.606ZM22.242 8.242C22.7994 8.79926 23.2416 9.46089 23.5432 10.1891C23.8449 10.9173 24.0001 11.6978 24 12.486V22C24 23.5913 23.3679 25.1174 22.2426 26.2426C21.1174 27.3679 19.5913 28 18 28H6C4.4087 28 2.88258 27.3679 1.75736 26.2426C0.632141 25.1174 0 23.5913 0 22V6C0 4.4087 0.632141 2.88258 1.75736 1.75736C2.88258 0.632141 4.4087 4.30457e-08 6 4.30457e-08H11.514C12.3022 -9.4368e-05 13.0827 0.155114 13.8109 0.456759C14.5391 0.758403 15.2007 1.20057 15.758 1.758L22.24 8.24L22.242 8.242Z" fill="#8049FF"/>
</svg>
