<svg width="41" height="41" viewBox="0 0 41 41" fill="none" xmlns="http://www.w3.org/2000/svg">
<path fill-rule="evenodd" clip-rule="evenodd" d="M20.4878 11.1992C18.0179 11.1992 15.6492 12.1804 13.9028 13.9268C12.1563 15.6733 11.1752 18.042 11.1752 20.5119C11.1752 22.9817 12.1563 25.3504 13.9028 27.0969C15.6492 28.8433 18.0179 29.8245 20.4878 29.8245C22.9577 29.8245 25.3264 28.8433 27.0728 27.0969C28.8193 25.3504 29.8005 22.9817 29.8005 20.5119C29.8005 18.042 28.8193 15.6733 27.0728 13.9268C25.3264 12.1804 22.9577 11.1992 20.4878 11.1992ZM14.9002 20.5119C14.9002 21.9938 15.4889 23.415 16.5368 24.4629C17.5847 25.5108 19.0059 26.0994 20.4878 26.0994C21.9697 26.0994 23.391 25.5108 24.4388 24.4629C25.4867 23.415 26.0754 21.9938 26.0754 20.5119C26.0754 19.0299 25.4867 17.6087 24.4388 16.5608C23.391 15.513 21.9697 14.9243 20.4878 14.9243C19.0059 14.9243 17.5847 15.513 16.5368 16.5608C15.4889 17.6087 14.9002 19.0299 14.9002 20.5119Z" fill="white"/>
<path d="M31.6629 7.47412C31.169 7.47412 30.6952 7.67035 30.3459 8.01964C29.9966 8.36894 29.8004 8.84268 29.8004 9.33665C29.8004 9.83062 29.9966 10.3044 30.3459 10.6537C30.6952 11.0029 31.169 11.1992 31.6629 11.1992C32.1569 11.1992 32.6307 11.0029 32.98 10.6537C33.3292 10.3044 33.5255 9.83062 33.5255 9.33665C33.5255 8.84268 33.3292 8.36894 32.98 8.01964C32.6307 7.67035 32.1569 7.47412 31.6629 7.47412Z" fill="white"/>
<path fill-rule="evenodd" clip-rule="evenodd" d="M7.45011 0.0244141C5.47422 0.0244141 3.57925 0.809334 2.18209 2.2065C0.78492 3.60367 0 5.49863 0 7.47453V33.5499C0 35.5258 0.78492 37.4208 2.18209 38.8179C3.57925 40.2151 5.47422 41 7.45011 41H33.5255C35.5014 41 37.3964 40.2151 38.7935 38.8179C40.1907 37.4208 40.9756 35.5258 40.9756 33.5499V7.47453C40.9756 5.49863 40.1907 3.60367 38.7935 2.2065C37.3964 0.809334 35.5014 0.0244141 33.5255 0.0244141H7.45011ZM33.5255 3.74947H7.45011C6.46217 3.74947 5.51468 4.14193 4.8161 4.84051C4.11752 5.5391 3.72506 6.48658 3.72506 7.47453V33.5499C3.72506 34.5379 4.11752 35.4853 4.8161 36.1839C5.51468 36.8825 6.46217 37.275 7.45011 37.275H33.5255C34.5135 37.275 35.4609 36.8825 36.1595 36.1839C36.8581 35.4853 37.2506 34.5379 37.2506 33.5499V7.47453C37.2506 6.48658 36.8581 5.5391 36.1595 4.84051C35.4609 4.14193 34.5135 3.74947 33.5255 3.74947Z" fill="white"/>
</svg>
