<svg width="41" height="41" viewBox="0 0 41 41" fill="none" xmlns="http://www.w3.org/2000/svg">
<path d="M30.7561 22.827V30.4014H26.3656V23.3331C26.3656 21.5589 25.7305 20.348 24.1406 20.348C22.9277 20.348 22.2045 21.1634 21.8869 21.9543C21.7722 22.237 21.7415 22.6304 21.7415 23.0237V30.4014H17.3489C17.3489 30.4014 17.4083 18.4324 17.3489 17.1929H21.7415V19.0634L21.7128 19.1065H21.7415V19.0634C22.3254 18.162 23.3662 16.8815 25.6997 16.8815C28.5885 16.8815 30.7561 18.7705 30.7561 22.827ZM12.7535 10.8232C11.2517 10.8232 10.2683 11.8108 10.2683 13.1056C10.2683 14.3758 11.223 15.39 12.6961 15.39H12.7248C14.2573 15.39 15.21 14.3738 15.21 13.1056C15.1813 11.8108 14.2573 10.8232 12.7535 10.8232ZM10.5285 30.4014H14.9211V17.1929H10.5285V30.4014Z" fill="white"/>
<path d="M8.21954 4.12198C7.1328 4.12198 6.09057 4.55368 5.32212 5.32212C4.55368 6.09057 4.12198 7.1328 4.12198 8.21954V32.8049C4.12198 33.8917 4.55368 34.9339 5.32212 35.7023C6.09057 36.4708 7.1328 36.9025 8.21954 36.9025H32.8049C33.8917 36.9025 34.9339 36.4708 35.7023 35.7023C36.4708 34.9339 36.9025 33.8917 36.9025 32.8049V8.21954C36.9025 7.1328 36.4708 6.09057 35.7023 5.32212C34.9339 4.55368 33.8917 4.12198 32.8049 4.12198H8.21954ZM8.21954 0.0244141H32.8049C34.9784 0.0244141 37.0629 0.887827 38.5997 2.42471C40.1366 3.96159 41 6.04606 41 8.21954V32.8049C41 34.9784 40.1366 37.0629 38.5997 38.5997C37.0629 40.1366 34.9784 41 32.8049 41H8.21954C6.04606 41 3.96159 40.1366 2.42471 38.5997C0.887827 37.0629 0.0244141 34.9784 0.0244141 32.8049V8.21954C0.0244141 6.04606 0.887827 3.96159 2.42471 2.42471C3.96159 0.887827 6.04606 0.0244141 8.21954 0.0244141Z" fill="white"/>
</svg>
