<svg width="35" height="43" viewBox="0 0 35 43" fill="none" xmlns="http://www.w3.org/2000/svg">
<path id="mouse icon" d="M17.5 7.5L18.5606 6.43934C17.9748 5.85356 17.0252 5.85356 16.4394 6.43934L17.5 7.5ZM17.5 23.5L16.4394 24.5606C17.0252 25.1464 17.9748 25.1464 18.5606 24.5606L17.5 23.5ZM12.4393 10.4393C11.8536 11.0251 11.8536 11.9749 12.4393 12.5607C13.0251 13.1464 13.9748 13.1464 14.5606 12.5607L12.4393 10.4393ZM20.4394 12.5607C21.0252 13.1464 21.9748 13.1464 22.5606 12.5607C23.1464 11.9749 23.1464 11.0251 22.5606 10.4393L20.4394 12.5607ZM14.5606 18.4394C13.9748 17.8536 13.0251 17.8536 12.4393 18.4394C11.8536 19.0252 11.8536 19.9748 12.4393 20.5606L14.5606 18.4394ZM22.5606 20.5606C23.1464 19.9748 23.1464 19.0252 22.5606 18.4394C21.9748 17.8536 21.0252 17.8536 20.4394 18.4394L22.5606 20.5606ZM0 17.5V25.5H3V17.5H0ZM35 25.5V17.5H32V25.5H35ZM16 7.5V23.5H19V7.5H16ZM16.4394 6.43934L12.4393 10.4393L14.5606 12.5607L18.5606 8.56066L16.4394 6.43934ZM16.4394 8.56066L20.4394 12.5607L22.5606 10.4393L18.5606 6.43934L16.4394 8.56066ZM18.5606 22.4394L14.5606 18.4394L12.4393 20.5606L16.4394 24.5606L18.5606 22.4394ZM18.5606 24.5606L22.5606 20.5606L20.4394 18.4394L16.4394 22.4394L18.5606 24.5606ZM35 17.5C35 7.83502 27.165 0 17.5 0V3C25.5082 3 32 9.49188 32 17.5H35ZM17.5 43C27.165 43 35 35.165 35 25.5H32C32 33.5082 25.5082 40 17.5 40V43ZM0 25.5C0 35.165 7.83502 43 17.5 43V40C9.49188 40 3 33.5082 3 25.5H0ZM3 17.5C3 9.49188 9.49188 3 17.5 3V0C7.83502 0 0 7.83502 0 17.5H3Z" fill="white"/>
</svg>
