<svg width="52" height="55" viewBox="0 0 52 55" fill="none" xmlns="http://www.w3.org/2000/svg">
<g clip-path="url(#clip0_429_60)">
<path d="M3.41282 0.709717H3.33796C2.36647 0.709717 1.57892 1.51004 1.57892 2.49729V52.4733C1.57892 53.4605 2.36647 54.2609 3.33796 54.2609H3.41282C4.38431 54.2609 5.17186 53.4605 5.17186 52.4733V2.49729C5.17186 1.51004 4.38431 0.709717 3.41282 0.709717Z" fill="white"/>
<path d="M36.8036 20.3441C36.8028 20.8153 36.7107 21.2817 36.5325 21.7167C36.3544 22.1517 36.0936 22.5467 35.7652 22.8793C35.4368 23.2119 35.0471 23.4755 34.6184 23.6551C34.1898 23.8346 33.7305 23.9266 33.2668 23.9257L15.6764 23.8946C14.74 23.8929 13.8427 23.5133 13.1818 22.8393C12.5208 22.1653 12.1504 21.252 12.152 20.3005L12.1643 13.1502C12.1651 12.6791 12.2572 12.2127 12.4354 11.7777C12.6135 11.3427 12.8743 10.9476 13.2027 10.615C13.5311 10.2824 13.9208 10.0188 14.3495 9.8393C14.7782 9.65976 15.2374 9.56778 15.7011 9.56861L33.2915 9.5998C34.2279 9.60148 35.1252 9.98107 35.7862 10.6551C36.4471 11.3291 36.8175 12.2423 36.8159 13.1938L36.8036 20.3441ZM33.2792 13.6538C33.2792 13.5395 33.2345 13.4298 33.1549 13.349C33.0754 13.2682 32.9675 13.2227 32.855 13.2227H16.063C15.9505 13.2227 15.8426 13.2682 15.7631 13.349C15.6835 13.4298 15.6388 13.5395 15.6388 13.6538V19.8659C15.6388 19.9802 15.6835 20.0899 15.7631 20.1707C15.8426 20.2516 15.9505 20.297 16.063 20.297H32.855C32.9675 20.297 33.0754 20.2516 33.1549 20.1707C33.2345 20.0899 33.2792 19.9802 33.2792 19.8659V13.6538Z" fill="white"/>
<path d="M50.8508 41.7896C50.8516 42.2574 50.7617 42.7209 50.5863 43.1534C50.4108 43.5859 50.1533 43.9791 49.8283 44.3105C49.5034 44.6419 49.1174 44.905 48.6923 45.0847C48.2673 45.2645 47.8116 45.3575 47.3513 45.3583L15.6886 45.4145C15.2282 45.4153 14.7722 45.3239 14.3466 45.1457C13.9209 44.9674 13.534 44.7057 13.2079 44.3754C12.8818 44.0452 12.6229 43.6529 12.446 43.221C12.2691 42.7891 12.1776 42.326 12.1768 41.8582L12.1645 34.6573C12.1637 34.1895 12.2536 33.7261 12.429 33.2936C12.6044 32.861 12.862 32.4678 13.1869 32.1365C13.5119 31.8051 13.8979 31.542 14.3229 31.3622C14.7479 31.1824 15.2036 31.0895 15.664 31.0886L47.3267 31.0325C47.7871 31.0317 48.2431 31.123 48.6687 31.3013C49.0943 31.4796 49.4812 31.7413 49.8073 32.0715C50.1334 32.4017 50.3923 32.794 50.5692 33.2259C50.7461 33.6578 50.8376 34.1209 50.8384 34.5887L50.8508 41.7896ZM47.3016 35.1174C47.3016 35.0591 47.2903 35.0014 47.2684 34.9476C47.2464 34.8938 47.2143 34.8448 47.1737 34.8036C47.1332 34.7624 47.085 34.7298 47.0321 34.7075C46.9791 34.6852 46.9223 34.6737 46.865 34.6737H16.0754C15.9596 34.6737 15.8486 34.7204 15.7667 34.8036C15.6848 34.8869 15.6388 34.9997 15.6388 35.1174V41.3042C15.6388 41.4219 15.6848 41.5347 15.7667 41.6179C15.8486 41.7012 15.9596 41.7479 16.0754 41.7479H46.865C46.9223 41.7479 46.9791 41.7364 47.0321 41.7141C47.085 41.6918 47.1332 41.6591 47.1737 41.6179C47.2143 41.5767 47.2464 41.5278 47.2684 41.474C47.2903 41.4202 47.3016 41.3625 47.3016 41.3042V35.1174Z" fill="white"/>
</g>
<defs>
<clipPath id="clip0_429_60">
<rect width="51.1496" height="54.5147" fill="white" transform="translate(0.64325 0.228027)"/>
</clipPath>
</defs>
</svg>
