<svg width="52" height="55" viewBox="0 0 52 55" fill="none" xmlns="http://www.w3.org/2000/svg">
<g clip-path="url(#clip0_429_67)">
<path d="M51.2504 26.133V29.7637C49.629 42.1058 43.157 50.0904 31.8345 53.7175C30.4427 54.1681 27.2589 54.2735 22.2831 54.0337C18.038 53.8301 13.7443 51.8494 9.40176 48.0916C3.45867 42.9454 0.487122 36.1238 0.487122 27.6267C0.487122 12.8424 11.5626 1.59054 25.4565 1.35067C25.6791 1.3434 25.787 1.45607 25.7801 1.68866L25.7592 3.93467C25.7592 4.20361 25.6304 4.34898 25.3729 4.37078C17.7388 4.84325 11.834 8.09232 7.6585 14.118C-4.34599 31.4319 10.2682 55.0149 30.3835 50.6974C37.8785 49.0946 44.3609 43.2616 46.8244 35.6949C49.5455 27.3433 48.1502 19.5549 42.6385 12.3299C42.2001 11.7484 42.0122 11.8284 42.0748 12.5698L42.2941 15.0448C42.3219 15.3646 42.1827 15.539 41.8765 15.5681L39.7575 15.7316C39.4721 15.7534 39.319 15.619 39.2981 15.3282L38.6614 7.53264C38.6266 7.1474 38.7936 6.94024 39.1624 6.91117L46.6679 6.23519C46.9254 6.21338 47.0645 6.33695 47.0854 6.60589L47.3151 9.04814C47.329 9.21532 47.2559 9.30618 47.0958 9.32072L44.9977 9.51697C44.5732 9.56058 44.5001 9.7532 44.7785 10.0948C48.5016 14.7031 50.6589 20.0492 51.2504 26.133Z" fill="white"/>
<path d="M41.5216 27.823C41.5216 32.1922 39.8598 36.3825 36.9018 39.4721C33.9439 42.5616 29.932 44.2973 25.7487 44.2973C21.5655 44.2973 17.5536 42.5616 14.5957 39.4721C11.6377 36.3825 9.97589 32.1922 9.97589 27.823C9.97589 23.4537 11.6377 19.2634 14.5957 16.1739C17.5536 13.0843 21.5655 11.3486 25.7487 11.3486C29.932 11.3486 33.9439 13.0843 36.9018 16.1739C39.8598 19.2634 41.5216 23.4537 41.5216 27.823ZM27.2624 38.6605L27.2519 40.4377C27.2519 40.961 27.4955 41.1609 27.9826 41.0373C33.6473 39.5836 37.1199 35.9093 38.4004 30.0145C38.4167 29.9354 38.4152 29.8534 38.3961 29.775C38.377 29.6966 38.3407 29.6239 38.2901 29.5626C38.2395 29.5014 38.176 29.4532 38.1046 29.4218C38.0332 29.3905 37.9558 29.3769 37.8785 29.3821L36.5737 29.4693C36.003 29.5057 35.7177 29.2258 35.7177 28.6298V26.9943C35.7177 26.4928 35.9578 26.242 36.438 26.242H37.8889C38.3413 26.242 38.5153 26.0094 38.4109 25.5443C37.0469 19.6349 33.5499 15.9933 27.92 14.6195C27.5024 14.5178 27.2902 14.6886 27.2832 15.132L27.2519 16.7783C27.245 17.1999 27.0431 17.4034 26.6465 17.3889L24.7884 17.3343C24.4126 17.3198 24.2247 17.1163 24.2247 16.7238L24.2456 15.1538C24.2456 14.6886 24.0298 14.5105 23.5984 14.6195C17.8989 16.0369 14.4089 19.6748 13.1284 25.5333C13.024 26.0058 13.2049 26.242 13.6712 26.242H15.237C15.5849 26.242 15.7589 26.4238 15.7589 26.7872L15.7485 28.7279C15.7415 29.2876 15.4736 29.5456 14.9447 29.502L14.1096 29.4366C13.1423 29.3639 12.8257 29.8037 13.1597 30.7559C15.324 36.8833 18.8592 40.285 23.7654 40.961C23.8353 40.9707 23.9064 40.9642 23.9736 40.942C24.0408 40.9198 24.1026 40.8823 24.1544 40.8324C24.2062 40.7824 24.2468 40.7211 24.2734 40.6529C24.3 40.5847 24.3119 40.5112 24.3082 40.4377L24.2247 38.8785C24.2189 38.7962 24.2295 38.7135 24.2558 38.6356C24.2821 38.5578 24.3235 38.4864 24.3773 38.426C24.4312 38.3656 24.4965 38.3175 24.569 38.2847C24.6415 38.2519 24.7198 38.2351 24.7988 38.2353H26.8657C27.1301 38.2425 27.2624 38.3843 27.2624 38.6605Z" fill="white"/>
<path d="M24.256 26.9181L24.2351 19.7767C24.2351 19.6784 24.2725 19.5841 24.3391 19.5146C24.4057 19.4451 24.4959 19.406 24.5901 19.406H26.9075C27.0016 19.406 27.0919 19.4451 27.1584 19.5146C27.225 19.5841 27.2624 19.6784 27.2624 19.7767L27.2519 28.4009C27.252 28.4548 27.2409 28.5082 27.2193 28.5571C27.1976 28.6061 27.166 28.6495 27.1267 28.6844L22.4501 32.8057C22.4139 32.8367 22.3721 32.8598 22.3273 32.8738C22.2824 32.8879 22.2353 32.8925 22.1887 32.8874C22.1422 32.8823 22.097 32.8677 22.0559 32.8443C22.0147 32.8209 21.9784 32.7893 21.9491 32.7512L20.4668 30.8759C20.4371 30.838 20.415 30.7944 20.4016 30.7475C20.3881 30.7007 20.3837 30.6515 20.3886 30.6029C20.3934 30.5542 20.4074 30.5071 20.4298 30.4641C20.4522 30.4211 20.4825 30.3832 20.519 30.3526L24.1308 27.2016C24.1701 27.1667 24.2017 27.1233 24.2234 27.0743C24.245 27.0254 24.2561 26.9721 24.256 26.9181Z" fill="white"/>
</g>
<defs>
<clipPath id="clip0_429_67">
<rect width="51.1496" height="54.5147" fill="white" transform="translate(0.100891 0.347656)"/>
</clipPath>
</defs>
</svg>
