<svg width="45" height="45" viewBox="0 0 45 45" fill="none" xmlns="http://www.w3.org/2000/svg">
<path d="M22.4996 -0.0244141L0.764611 36.75C0.272606 37.5799 0.00913567 38.5253 0.000988324 39.4901C-0.00715902 40.4548 0.240307 41.4046 0.718226 42.2427C1.19614 43.0808 1.88747 43.7774 2.72192 44.2617C3.55637 44.746 4.50418 45.0007 5.46899 45H39.5302C40.495 45.0007 41.4429 44.746 42.2773 44.2617C43.1117 43.7774 43.8031 43.0808 44.281 42.2427C44.7589 41.4046 45.0064 40.4548 44.9982 39.4901C44.9901 38.5253 44.7266 37.5799 44.2346 36.75L22.4996 -0.0244141ZM16.8746 41.25L22.4996 31.7231L28.1246 41.25H16.8746ZM41.0246 40.3856C40.8769 40.65 40.6607 40.8698 40.3987 41.0219C40.1368 41.174 39.8387 41.2528 39.5359 41.25H32.4859L22.4996 24.3506L12.5134 41.25H5.46899C5.16672 41.2504 4.86973 41.1708 4.60821 41.0192C4.34668 40.8677 4.12995 40.6495 3.98005 40.3871C3.83014 40.1246 3.75241 39.8271 3.75475 39.5248C3.75709 39.2226 3.83941 38.9263 3.99336 38.6662L22.4996 7.34809L41.0059 38.6606C41.163 38.9203 41.2472 39.2177 41.2495 39.5213C41.2518 39.8249 41.1722 40.1235 41.019 40.3856H41.0246Z" fill="#FF554C"/>
</svg>
