<svg width="23" height="23" viewBox="0 0 23 23" fill="none" xmlns="http://www.w3.org/2000/svg">
<path d="M2.91333 17.94L3.59873 18.2835L3.81033 17.8587L3.52667 17.48L2.91333 17.94ZM5.06 20.0867L5.52 19.4733L5.14127 19.1897L4.71653 19.4013L5.06 20.0867ZM0.766667 22.2333L0.0812667 21.8899C0.00948747 22.0337 -0.0152826 22.1964 0.0104574 22.355C0.0361974 22.5137 0.111146 22.6602 0.224709 22.774C0.338272 22.8877 0.484707 22.9629 0.643317 22.9888C0.801927 23.0148 0.964689 22.9903 1.1086 22.9187L0.766667 22.2333ZM6.9 6.9L6.47527 6.26213C6.37016 6.33208 6.28395 6.4269 6.22429 6.53818C6.16464 6.64945 6.1334 6.77374 6.13333 6.9H6.9ZM16.1 16.1V16.8667C16.2263 16.8666 16.3505 16.8353 16.4618 16.7757C16.5731 16.716 16.6679 16.6298 16.7379 16.5247L16.1 16.1ZM0 11.5C0 14.0883 0.8556 16.4787 2.3 18.4L3.52667 17.48C2.22978 15.7564 1.53 13.657 1.53333 11.5H0ZM11.5 0C8.45001 0 5.52494 1.2116 3.36827 3.36827C1.2116 5.52494 0 8.45001 0 11.5H1.53333C1.53333 8.85667 2.58339 6.32161 4.4525 4.4525C6.32162 2.58339 8.85668 1.53333 11.5 1.53333V0ZM23 11.5C23 8.45001 21.7884 5.52494 19.6317 3.36827C17.4751 1.2116 14.55 0 11.5 0V1.53333C12.8088 1.53333 14.1049 1.79113 15.3141 2.292C16.5233 2.79287 17.622 3.52701 18.5475 4.4525C19.473 5.37799 20.2071 6.47671 20.708 7.68592C21.2089 8.89513 21.4667 10.1912 21.4667 11.5H23ZM11.5 23C14.55 23 17.4751 21.7884 19.6317 19.6317C21.7884 17.4751 23 14.55 23 11.5H21.4667C21.4667 12.8088 21.2089 14.1049 20.708 15.3141C20.2071 16.5233 19.473 17.622 18.5475 18.5475C17.622 19.473 16.5233 20.2071 15.3141 20.708C14.1049 21.2089 12.8088 21.4667 11.5 21.4667V23ZM4.6 20.7C6.58904 22.1959 9.0112 23.0033 11.5 23V21.4667C9.34295 21.4701 7.24357 20.7703 5.52 19.4733L4.6 20.7ZM1.1086 22.9187L5.40193 20.7721L4.71653 19.4013L0.421667 21.5479L1.1086 22.9187ZM2.2264 17.5981L0.0797333 21.8914L1.45053 22.5768L3.59873 18.2835L2.2264 17.5981ZM6.13333 6.9V8.43333H7.66667V6.9H6.13333ZM14.5667 16.8667H16.1V15.3333H14.5667V16.8667ZM6.13333 8.43333C6.13333 10.67 7.02184 12.815 8.6034 14.3966C10.185 15.9782 12.33 16.8667 14.5667 16.8667V15.3333C12.7367 15.3333 10.9816 14.6064 9.68763 13.3124C8.39363 12.0184 7.66667 10.2633 7.66667 8.43333H6.13333ZM7.32473 7.53786L7.65287 7.32013L6.80187 6.0444L6.47527 6.26213L7.32473 7.53786ZM8.83353 7.83226L9.0482 9.11413L10.5601 8.86266L10.3454 7.57926L8.83353 7.83226ZM8.717 9.87926L7.24193 10.8621L8.0914 12.1379L9.56647 11.155L8.717 9.87926ZM9.0482 9.11413C9.0727 9.26002 9.05447 9.40989 8.9957 9.54565C8.93693 9.68142 8.84014 9.79728 8.717 9.87926L9.56647 11.155C9.93536 10.9093 10.2254 10.5622 10.4017 10.1555C10.5779 9.74882 10.6329 9.29987 10.5601 8.86266L9.0482 9.11413ZM7.65287 7.32013C7.7594 7.2493 7.88197 7.20625 8.0094 7.19492C8.13682 7.18358 8.26506 7.20431 8.38243 7.25522C8.4998 7.30613 8.60256 7.3856 8.68135 7.48639C8.76014 7.58718 8.81246 7.70608 8.83353 7.83226L10.3454 7.57926C10.2821 7.2006 10.125 6.84381 9.88841 6.54143C9.65185 6.23905 9.34336 6.0007 8.99107 5.84811C8.63877 5.69551 8.25389 5.63353 7.8715 5.66782C7.48911 5.70211 7.12139 5.83157 6.80187 6.0444L7.65287 7.32013ZM16.7379 16.5247L16.9556 16.1981L15.6799 15.3471L15.4621 15.6753L16.7379 16.5247ZM15.4192 12.6546L14.1373 12.4399L13.8859 13.9533L15.1677 14.1665L15.4192 12.6546ZM11.845 13.4335L10.8621 14.9086L12.1379 15.7581L13.1207 14.283L11.845 13.4335ZM14.1373 12.4399C13.7001 12.3671 13.2512 12.4221 12.8445 12.5983C12.4378 12.7746 12.0907 13.0646 11.845 13.4335L13.1207 14.283C13.2027 14.1599 13.3186 14.0631 13.4543 14.0043C13.5901 13.9455 13.74 13.9273 13.8859 13.9518L14.1373 12.4399ZM16.9556 16.1981C17.1684 15.8786 17.2979 15.5109 17.3322 15.1285C17.3665 14.7461 17.3045 14.3612 17.1519 14.0089C16.9993 13.6566 16.7609 13.3481 16.4586 13.1116C16.1562 12.875 15.7994 12.7179 15.4207 12.6546L15.1677 14.1665C15.2939 14.1875 15.4128 14.2399 15.5136 14.3186C15.6144 14.3974 15.6939 14.5002 15.7448 14.6176C15.7957 14.7349 15.8164 14.8632 15.8051 14.9906C15.7937 15.118 15.7507 15.2406 15.6799 15.3471L16.9556 16.1981Z" fill="white"/>
</svg>
